<svg aria-hidden="true" style="width:0;height:0;position:absolute;overflow:hidden" xmlns="http://www.w3.org/2000/svg"><defs><symbol id="arrow-link" viewBox="0 0 32 32"><path d="m30.73 17.12-9.96 10c-.32.32-.72.48-1.12.48s-.8-.16-1.12-.48c-.64-.64-.64-1.64 0-2.28l7.24-7.28H2.41c-.88 0-1.6-.72-1.6-1.6s.72-1.6 1.6-1.6h23.36l-7.24-7.28c-.64-.64-.64-1.64 0-2.28s1.64-.64 2.28 0l9.96 10c.6.68.6 1.72-.04 2.32z"/></symbol><symbol id="arrow" viewBox="0 0 32 32"><path d="M24.273.727a1.8 1.8 0 0 0-2.546 0l-14 14a1.8 1.8 0 0 0 0 2.546l14 14a1.8 1.8 0 0 0 2.546-2.546L11.546 16 24.273 3.273a1.8 1.8 0 0 0 0-2.546z"/></symbol><symbol id="catalog" viewBox="0 0 32 32"><path d="M.58.111C.458.171.278.325.179.454L0 .688v12.488l.18.235c.369.482-.046.454 6.734.454s6.366.028 6.734-.454l.18-.235V.688l-.18-.235c-.369-.482.048-.454-6.745-.453C1.39.001.779.012.579.111zm18.171 0c-.122.06-.302.214-.401.343l-.179.234v12.488l.18.235c.368.482-.046.454 6.734.454s6.366.028 6.734-.454l.18-.235V.688l-.18-.235c-.369-.482.048-.454-6.744-.453-5.513.001-6.124.012-6.324.111zm-7.027 6.822v4.8h-9.62v-9.6h9.62v4.8zm18.172 0v4.8h-9.62v-9.6h9.62v4.8zM.58 18.245c-.122.06-.302.215-.401.343L0 18.822V31.31l.18.235c.369.482-.046.454 6.734.454s6.366.028 6.734-.454l.18-.235V18.822l-.18-.235c-.369-.482.048-.454-6.745-.453-5.513.001-6.124.012-6.324.111zm18.171 0c-.122.06-.302.215-.401.343l-.179.234V31.31l.18.235c.368.482-.046.454 6.734.454s6.366.028 6.734-.454l.18-.235V18.822l-.18-.235c-.369-.482.048-.454-6.744-.453-5.513.001-6.124.012-6.324.111zm-7.027 6.821v4.8h-9.62v-9.6h9.62v4.8zm18.172 0v4.8h-9.62v-9.6h9.62v4.8z"/></symbol><symbol id="favorite" viewBox="0 0 32 32"><path d="M7.985.102C4.003.741.912 4.111.118 8.679c-.158.909-.158 2.751.001 3.714.56 3.411 2.349 6.809 5.581 10.604 2.309 2.711 5.042 5.269 8.203 7.677 1.537 1.171 1.878 1.372 2.233 1.318.633-.097 4.533-3.235 7.095-5.708 1.206-1.164 3.117-3.27 4.041-4.452 2.557-3.272 4.067-6.325 4.581-9.265.183-1.044.199-2.819.035-3.835-.705-4.363-3.614-7.703-7.467-8.57-.775-.174-2.466-.176-3.285-.003-1.674.353-3.24 1.235-4.585 2.582l-.546.547-.549-.549C13.325.608 10.672-.328 7.988.102zm2.336 2.284c1.843.317 3.408 1.374 4.696 3.172.388.542.636.724.983.724.354 0 .598-.182.975-.725 2.19-3.158 5.799-4.152 8.908-2.454 2.238 1.223 3.756 3.617 4.086 6.447.566 4.847-3.16 10.923-10.589 17.273a72.805 72.805 0 0 1-2.358 1.929l-1.01.778-.554-.412c-1.85-1.375-4.112-3.331-5.906-5.106-5.435-5.379-8.019-10.386-7.511-14.554.15-1.23.62-2.597 1.252-3.641.37-.611 1.304-1.667 1.843-2.084 1.517-1.174 3.379-1.658 5.185-1.347z"/></symbol><symbol id="search" viewBox="0 0 32 32"><path d="M13.698.017C10.626.323 8.2 1.244 5.849 2.996c-.764.569-2.293 2.098-2.862 2.861C1.436 7.937.513 10.14.121 12.703c-.159 1.038-.161 3.208-.004 4.22.937 6.038 5.246 10.811 11.088 12.282 1.771.446 4.087.559 5.818.283 2.662-.424 5.053-1.475 7.088-3.117l.469-.379 2.971 2.964c3.218 3.21 3.099 3.113 3.671 3.005.308-.058.682-.432.74-.74.107-.572.205-.453-3.006-3.67l-2.965-2.97.381-.469c2.914-3.589 3.959-8.451 2.801-13.03-.73-2.885-2.492-5.675-4.811-7.618a14.95 14.95 0 0 0-7.38-3.328c-.625-.096-2.75-.175-3.284-.122zm2.354 2.03c2.961.303 5.66 1.563 7.734 3.611 4.749 4.688 5.163 12.076.968 17.267-.208.258-.671.752-1.027 1.098a12.781 12.781 0 0 1-14.711 2.231 12.83 12.83 0 0 1-6.823-13.802C3.386 5.972 9.507 1.376 16.051 2.046z"/></symbol><symbol id="user" viewBox="0 0 32 32"><path d="M14.816.854c-3.477.323-6.639 2.309-7.874 4.944-.491 1.047-.676 1.972-.618 3.084.08 1.539.59 2.791 1.666 4.092.407.492 1.489 1.429 2.013 1.744.141.085.241.165.222.178s-.527.214-1.128.446C4.105 17.268.82 20.95.086 25.443c-.126.774-.111 2.005.031 2.485.436 1.475 1.849 2.657 3.744 3.133l.555.139h23.168l.555-.139c1.526-.383 2.704-1.186 3.369-2.297.382-.638.499-1.122.492-2.043-.018-2.278-.893-4.654-2.441-6.628-1.624-2.07-3.878-3.68-6.655-4.751-.601-.232-1.108-.432-1.128-.446s.081-.093.222-.178c.524-.315 1.606-1.252 2.013-1.744 1.077-1.301 1.586-2.553 1.666-4.092.143-2.76-1.478-5.271-4.405-6.825-1.866-.99-4.155-1.417-6.455-1.203zm1.853 2.314c5.689.469 8.166 6.028 4.13 9.27-2.671 2.146-6.928 2.146-9.599 0-3.124-2.51-2.48-6.688 1.315-8.524.742-.359 1.881-.673 2.691-.741.335-.028.63-.055.656-.059s.389.02.806.055zm1.198 13.348c1.547.187 2.694.486 4.129 1.077 4.198 1.729 6.886 5.1 7.081 8.88.037.725.026.835-.117 1.139-.221.468-.651.838-1.248 1.074l-.494.196H4.784l-.494-.196c-.597-.236-1.027-.606-1.248-1.074-.143-.303-.155-.414-.117-1.139.081-1.566.544-2.98 1.418-4.327 1.306-2.013 3.208-3.542 5.663-4.553a14.846 14.846 0 0 1 4.052-1.073c.907-.114 2.882-.116 3.81-.004z"/></symbol><symbol id="delete" viewBox="0 0 32 32"><path d="M29.045 25.087 18.891 14.933 29.045 4.779c1.096-1.096 1.096-2.861 0-3.957s-2.861-1.096-3.957 0L14.934 10.976 4.78.822C3.684-.274 1.919-.274.823.822s-1.096 2.861 0 3.957l10.154 10.154L.823 25.087c-1.096 1.096-1.096 2.861 0 3.957s2.861 1.096 3.957 0L14.934 18.89l10.154 10.154a2.792 2.792 0 0 0 3.957 0 2.805 2.805 0 0 0 0-3.957z"/></symbol></defs></svg>